<svg width="122" height="28" viewBox="0 0 122 28" fill="none" xmlns="http://www.w3.org/2000/svg">
<path d="M50.4701 13.81C50.6021 13.03 50.6921 12.34 50.7401 11.74C50.7881 11.128 50.8181 10.57 50.8301 10.066H44.6561V8.176H53.1701V9.202C53.1701 9.778 53.1521 10.474 53.1161 11.29C53.0921 12.094 52.9841 13.024 52.7921 14.08L50.4701 13.81ZM54.0341 16.438C53.1821 16.594 52.3061 16.72 51.4061 16.816C50.5181 16.912 49.6361 16.984 48.7601 17.032C47.8841 17.08 47.0321 17.116 46.2041 17.14C45.3881 17.152 44.6261 17.158 43.9181 17.158L43.7021 15.268C44.1581 15.268 44.6381 15.268 45.1421 15.268C45.6581 15.268 46.1861 15.262 46.7261 15.25V12.028H49.0481V15.16C49.8761 15.124 50.6921 15.076 51.4961 15.016C52.3121 14.944 53.1101 14.854 53.8901 14.746L54.0341 16.438ZM48.4901 21.37H57.6881V23.26H46.1141V18.274H48.4901V21.37ZM59.1461 12.01V13.972H57.1661V19.372H54.7901V6.952H57.1661V12.01H59.1461ZM63.8067 17.77C64.4307 17.77 65.0367 17.758 65.6247 17.734C66.2127 17.71 66.7887 17.68 67.3527 17.644C67.9167 17.596 68.4747 17.542 69.0267 17.482C69.5907 17.41 70.1667 17.326 70.7547 17.23L71.0067 19.156C70.3347 19.276 69.6687 19.372 69.0087 19.444C68.3607 19.516 67.7067 19.576 67.0467 19.624C66.3867 19.66 65.7147 19.69 65.0307 19.714C64.3467 19.726 63.6267 19.732 62.8707 19.732H61.3767V12.91H66.7587V10.264H61.3587V8.374H69.1887V14.782H63.8067V17.77ZM74.2827 6.952V23.584H71.9067V6.952H74.2827ZM83.1373 11.434C83.1373 12.07 83.2213 12.718 83.3893 13.378C83.5573 14.038 83.8033 14.668 84.1273 15.268C84.4633 15.868 84.8833 16.42 85.3873 16.924C85.8913 17.428 86.4853 17.836 87.1693 18.148L85.8553 20.02C84.9313 19.6 84.1453 19 83.4973 18.22C82.8613 17.428 82.3573 16.54 81.9853 15.556C81.6133 16.648 81.0973 17.62 80.4373 18.472C79.7773 19.324 78.9733 19.978 78.0253 20.434L76.6933 18.544C77.3773 18.232 77.9713 17.818 78.4753 17.302C78.9793 16.774 79.3993 16.192 79.7353 15.556C80.0833 14.908 80.3413 14.23 80.5093 13.522C80.6773 12.814 80.7613 12.118 80.7613 11.434V10.516H77.3233V8.554H86.4313V10.516H83.1373V11.434ZM92.4433 15.25H90.0313V23.548H87.6553V6.97H90.0313V13.288H92.4433V15.25Z" fill="#989898"/>
<circle cx="14" cy="14" r="14" fill="#FFB932"/>
<path d="M7 20C7.6838 17.1519 10.563 15 13.982 15C17.401 15 20.3162 17.1519 21 20" fill="#FFB932"/>
<path d="M7 20C7.6838 17.1519 10.563 15 13.982 15C17.401 15 20.3162 17.1519 21 20" stroke="white" stroke-miterlimit="10" stroke-linecap="round"/>
<path d="M14 12C15.6569 12 17 10.6569 17 9C17 7.34315 15.6569 6 14 6C12.3431 6 11 7.34315 11 9C11 10.6569 12.3431 12 14 12Z" fill="#FFB932" stroke="white" stroke-miterlimit="10"/>
<path d="M120.083 11.1125L115.314 17.6569L110.544 11.1125" stroke="#989898" stroke-linecap="round"/>
</svg>
